<svg width="20" height="20" viewBox="0 0 20 20" fill="none" xmlns="http://www.w3.org/2000/svg">
<path d="M9.99996 18.9583C5.05996 18.9583 1.04163 14.94 1.04163 10C1.04163 5.06 5.05996 1.04166 9.99996 1.04166C14.94 1.04166 18.9583 5.06 18.9583 10C18.9583 14.94 14.94 18.9583 9.99996 18.9583ZM9.99996 2.29166C5.74996 2.29166 2.29163 5.75 2.29163 10C2.29163 14.25 5.74996 17.7083 9.99996 17.7083C14.25 17.7083 17.7083 14.25 17.7083 10C17.7083 5.75 14.25 2.29166 9.99996 2.29166Z" fill="#1D9BF0"/>
<path d="M9.99992 14.2625C8.42326 14.2625 6.97242 13.4708 6.11992 12.1425C5.93326 11.8525 6.01742 11.4675 6.30826 11.28C6.59826 11.0917 6.98492 11.1767 7.17159 11.4683C7.79409 12.4367 8.85159 13.0142 10.0008 13.0142C11.1499 13.0142 12.2074 12.4367 12.8308 11.4692C13.0174 11.1775 13.4041 11.0942 13.6941 11.2817C13.9858 11.4683 14.0691 11.855 13.8824 12.145C13.0283 13.4733 11.5774 14.2658 10.0008 14.2658L9.99992 14.2625Z" fill="#1D9BF0"/>
<path d="M12.2816 9.11333C12.9618 9.11333 13.5133 8.56189 13.5133 7.88166C13.5133 7.20143 12.9618 6.64999 12.2816 6.64999C11.6014 6.64999 11.0499 7.20143 11.0499 7.88166C11.0499 8.56189 11.6014 9.11333 12.2816 9.11333Z" fill="#1D9BF0"/>
<path d="M7.71824 9.11333C8.39847 9.11333 8.94991 8.56189 8.94991 7.88166C8.94991 7.20143 8.39847 6.64999 7.71824 6.64999C7.03801 6.64999 6.48657 7.20143 6.48657 7.88166C6.48657 8.56189 7.03801 9.11333 7.71824 9.11333Z" fill="#1D9BF0"/>
</svg>
