<svg width="20" height="21" viewBox="0 0 20 21" fill="none" xmlns="http://www.w3.org/2000/svg">
<path d="M11.705 2.36835L8.24837 2.36002H8.2467C4.6017 2.36002 1.7467 5.21585 1.7467 8.86168C1.7467 12.2767 4.4017 14.8667 7.96754 15.0033V18.1933C7.96754 18.2833 8.0042 18.4317 8.06754 18.5292C8.18587 18.7167 8.38754 18.8183 8.5942 18.8183C8.7092 18.8183 8.82504 18.7867 8.9292 18.72C9.1492 18.58 14.3234 15.27 15.6692 14.1317C17.2542 12.79 18.2025 10.8233 18.205 8.87168V8.85752C18.2 5.21835 15.3467 2.36835 11.705 2.36752V2.36835ZM14.8609 13.1783C13.9159 13.9783 10.8092 16.0159 9.21754 17.0475V14.3917C9.21754 14.0467 8.93837 13.7667 8.59254 13.7667H8.26254C5.21254 13.7667 2.99754 11.7034 2.99754 8.86168C2.99754 5.91668 5.3042 3.61002 8.24754 3.61002L11.7034 3.61835H11.705C14.6484 3.61835 16.955 5.92335 16.9567 8.86502C16.9542 10.4567 16.1717 12.0683 14.8617 13.1783H14.8609Z" fill="#6E767D"/>
</svg>
